# Blender 4.3.2
# www.blender.org
mtllib step-teeth.mtl
o Vert
v 2.472952 0.000000 -0.514742
v 2.473107 0.000000 0.515719
v 2.241210 0.000000 0.516102
v 2.239459 0.000000 0.553786
v 1.848944 0.000000 0.554606
v 1.848396 0.000000 0.593878
v 1.657575 0.000000 0.595246
v 1.655110 0.000000 -0.594096
v 1.848012 0.000000 -0.592563
v 1.849109 0.000000 -0.553457
v 2.239183 0.000000 -0.556305
v 2.239949 0.000000 -0.514515
vn -0.0000 1.0000 -0.0000
s 0
f 10//1 8//1 5//1
f 2//1 1//1 12//1
f 12//1 11//1 10//1
f 10//1 9//1 8//1
f 8//1 7//1 5//1
f 7//1 6//1 5//1
f 5//1 4//1 3//1
f 2//1 12//1 3//1
f 12//1 10//1 5//1
f 3//1 12//1 5//1
